<svg width="32" height="33" viewBox="0 0 32 33" fill="none" xmlns="http://www.w3.org/2000/svg">
<path fill-rule="evenodd" clip-rule="evenodd" d="M9.40355 0.581875C11.1102 0.502427 11.6542 0.484375 16 0.484375C20.3466 0.484375 20.8897 0.503328 22.5955 0.581875C24.2995 0.660422 25.4631 0.93577 26.4809 1.3375C27.5484 1.74569 28.5153 2.38524 29.3146 3.21167C30.1284 4.02333 30.7583 5.00551 31.16 6.08972C31.5555 7.1234 31.8257 8.30515 31.904 10.0349C31.9823 11.7682 32 12.3207 32 16.7344C32 21.148 31.9814 21.7005 31.904 23.434C31.8266 25.1635 31.5555 26.3454 31.16 27.379C30.7511 28.4471 30.2035 29.3543 29.3146 30.257C28.5155 31.0836 27.5484 31.7232 26.4809 32.1313C25.4631 32.5329 24.2995 32.8074 22.5965 32.8869C20.8897 32.9664 20.3457 32.9844 16 32.9844C11.6542 32.9844 11.1102 32.9655 9.40355 32.8869C7.70045 32.8083 6.53689 32.5329 5.51911 32.1313C4.46755 31.716 3.57423 31.1598 2.68534 30.257C1.87148 29.4454 1.24172 28.4632 0.84 27.379C0.444451 26.3454 0.174225 25.1635 0.096 23.434C0.0177745 21.7005 0 21.1489 0 16.7344C0 12.3198 0.0186618 11.7682 0.096 10.0358C0.173338 8.30515 0.444451 7.1234 0.84 6.08972C1.24191 5.00558 1.87162 4.02345 2.68534 3.21167C3.48449 2.38509 4.45156 1.74549 5.51911 1.3375C6.53689 0.93577 7.70045 0.661323 9.40355 0.581875ZM22.4657 3.50688C20.7786 3.42923 20.272 3.41208 16 3.41208C11.728 3.41208 11.2213 3.42923 9.53423 3.50688C7.97423 3.5791 7.12711 3.8436 6.56355 4.0666C5.81689 4.3609 5.28355 4.71298 4.72355 5.28173C4.16445 5.85048 3.81689 6.39215 3.52711 7.15048C3.30755 7.72285 3.04711 8.5832 2.976 10.1676C2.89955 11.881 2.88266 12.3956 2.88266 16.7344C2.88266 21.0731 2.89955 21.5877 2.976 23.3011C3.04711 24.8855 3.30755 25.7459 3.52711 26.3183C3.78343 27.0242 4.19228 27.6626 4.72355 28.1871C5.23977 28.7266 5.86852 29.1418 6.56355 29.4021C7.12711 29.6252 7.97423 29.8896 9.53423 29.9619C11.2213 30.0396 11.7271 30.0567 16 30.0567C20.2729 30.0567 20.7786 30.0396 22.4657 29.9619C24.0257 29.8896 24.8729 29.6252 25.4365 29.4021C26.1831 29.1079 26.7165 28.7558 27.2765 28.1871C27.8077 27.6628 28.2166 27.0242 28.4729 26.3183C28.6925 25.7459 28.9529 24.8855 29.024 23.3011C29.1005 21.5877 29.1174 21.0731 29.1174 16.7344C29.1174 12.3956 29.1005 11.881 29.024 10.1676C28.9529 8.5832 28.6925 7.72285 28.4729 7.15048C28.1831 6.39215 27.8365 5.85048 27.2765 5.28173C26.7165 4.7139 26.1831 4.3609 25.4365 4.0666C24.8729 3.8436 24.0257 3.5791 22.4657 3.50688ZM13.9571 21.7437C14.6048 22.0162 15.2989 22.1564 16 22.1564C17.416 22.1564 18.7738 21.5851 19.775 20.5683C20.7763 19.5515 21.3388 18.1724 21.3388 16.7344C21.3388 15.2964 20.7763 13.9172 19.775 12.9004C18.7738 11.8835 17.416 11.3123 16 11.3123C15.2989 11.3123 14.6048 11.4525 13.9571 11.725C13.3092 11.9975 12.7208 12.3969 12.225 12.9004C11.7293 13.4039 11.336 14.0016 11.0678 14.6594C10.7995 15.3172 10.6614 16.0223 10.6614 16.7344C10.6614 17.4464 10.7995 18.1515 11.0678 18.8094C11.336 19.4672 11.7293 20.0649 12.225 20.5683C12.7208 21.0718 13.3092 21.4713 13.9571 21.7437ZM10.1848 10.8283C11.7271 9.26186 13.8189 8.38186 16 8.38186C18.1812 8.38186 20.273 9.26186 21.8153 10.8283C23.3575 12.3947 24.224 14.5192 24.224 16.7344C24.224 18.9495 23.3575 21.074 21.8153 22.6405C20.273 24.2069 18.1812 25.0869 16 25.0869C13.8189 25.0869 11.7271 24.2069 10.1848 22.6405C8.6425 21.074 7.77604 18.9495 7.77604 16.7344C7.77604 14.5192 8.6425 12.3947 10.1848 10.8283ZM26.0476 9.6263C26.4121 9.25602 26.6169 8.75384 26.6169 8.2302C26.6169 7.70655 26.4121 7.20437 26.0476 6.83411C25.6829 6.46384 25.1885 6.25583 24.6729 6.25583C24.1574 6.25583 23.6628 6.46384 23.2983 6.83411C22.9337 7.20437 22.7289 7.70655 22.7289 8.2302C22.7289 8.75384 22.9337 9.25602 23.2983 9.6263C23.6628 9.99656 24.1574 10.2046 24.6729 10.2046C25.1885 10.2046 25.6829 9.99656 26.0476 9.6263Z" fill="#0C214A"/>
</svg>
