<svg width="37" height="31" viewBox="0 0 37 31" fill="none" xmlns="http://www.w3.org/2000/svg">
<path d="M36.9231 4.09141C35.55 4.70312 34.0869 5.10859 32.5615 5.30547C34.1308 4.35391 35.3285 2.85859 35.8915 1.05625C34.4285 1.94219 32.8131 2.56797 31.0915 2.91719C29.7023 1.41484 27.7223 0.484375 25.5623 0.484375C21.3715 0.484375 17.9977 3.93906 17.9977 8.17422C17.9977 8.78359 18.0485 9.36953 18.1731 9.92734C11.88 9.61562 6.31154 6.55234 2.57077 1.88594C1.91769 3.03672 1.53462 4.35391 1.53462 5.77187C1.53462 8.43438 2.88462 10.7945 4.89692 12.1609C3.68077 12.1375 2.48769 11.7789 1.47692 11.2141C1.47692 11.2375 1.47692 11.268 1.47692 11.2984C1.47692 15.0344 4.10077 18.1375 7.54154 18.8523C6.92538 19.0234 6.25385 19.1055 5.55692 19.1055C5.07231 19.1055 4.58308 19.0773 4.12385 18.9742C5.10462 22.0187 7.88769 24.257 11.1969 24.3297C8.62154 26.3758 5.35154 27.6086 1.81154 27.6086C1.19077 27.6086 0.595385 27.5805 0 27.5031C3.35308 29.6992 7.32692 30.9531 11.6123 30.9531C25.5415 30.9531 33.1569 19.2344 33.1569 9.07656C33.1569 8.73672 33.1454 8.40859 33.1292 8.08281C34.6315 7 35.8938 5.64766 36.9231 4.09141Z" fill="#0C214A"/>
</svg>
