<svg width="31" height="29" viewBox="0 0 31 29" fill="none" xmlns="http://www.w3.org/2000/svg">
<path d="M27.833 25.3828H24.7497V9.83105L15.4997 16.4961L6.24967 9.83105V25.3828H3.16634V4.05469H5.01634L15.4997 11.6084L25.983 4.05469H27.833M27.833 0.5H3.16634C1.45509 0.5 0.0830078 2.08184 0.0830078 4.05469V25.3828C0.0830078 26.3256 0.407858 27.2297 0.986095 27.8964C1.56433 28.563 2.34859 28.9375 3.16634 28.9375H27.833C28.6508 28.9375 29.435 28.563 30.0133 27.8964C30.5915 27.2297 30.9163 26.3256 30.9163 25.3828V4.05469C30.9163 3.11193 30.5915 2.20778 30.0133 1.54114C29.435 0.87451 28.6508 0.5 27.833 0.5Z" fill="#0C214A"/>
</svg>
