<svg width="39" height="39" viewBox="0 0 39 39" fill="none" xmlns="http://www.w3.org/2000/svg">
<path d="M0 19.5C0 12.4961 0 8.99416 1.41694 6.34324C2.53575 4.25011 4.25011 2.53575 6.34324 1.41694C8.99416 0 12.4961 0 19.5 0C26.5039 0 30.0058 0 32.6568 1.41694C34.7499 2.53575 36.4642 4.25011 37.583 6.34324C39 8.99416 39 12.4961 39 19.5C39 26.5039 39 30.0058 37.583 32.6568C36.4642 34.7499 34.7499 36.4642 32.6568 37.5831C30.0058 39 26.5039 39 19.5 39C12.4961 39 8.99416 39 6.34324 37.5831C4.25011 36.4642 2.53575 34.7499 1.41694 32.6568C0 30.0058 0 26.5039 0 19.5Z" fill="#DE5B31"/>
<path d="M29.449 11.7139L27.5251 9.74994L19.8979 17.536L12.2708 9.74994L10.3469 11.7139L17.9741 19.4999L10.3469 27.286L12.2708 29.2499L19.8979 21.4639L27.5251 29.2499L29.449 27.286L21.8218 19.4999L29.449 11.7139Z" fill="white" stroke="white" stroke-width="0.5"/>
</svg>
