<svg width="39" height="39" viewBox="0 0 39 39" fill="none" xmlns="http://www.w3.org/2000/svg">
<path d="M0 19.5C0 12.4961 0 8.99416 1.41694 6.34324C2.53575 4.25011 4.25011 2.53575 6.34324 1.41694C8.99416 0 12.4961 0 19.5 0C26.5039 0 30.0058 0 32.6568 1.41694C34.7499 2.53575 36.4642 4.25011 37.583 6.34324C39 8.99416 39 12.4961 39 19.5C39 26.5039 39 30.0058 37.583 32.6568C36.4642 34.7499 34.7499 36.4642 32.6568 37.5831C30.0058 39 26.5039 39 19.5 39C12.4961 39 8.99416 39 6.34324 37.5831C4.25011 36.4642 2.53575 34.7499 1.41694 32.6568C0 30.0058 0 26.5039 0 19.5Z" fill="#DE5B31"/>
<path d="M13.957 20.076L21.1028 26.4052C21.3945 26.6635 21.5345 26.9649 21.5228 27.3094C21.5111 27.6538 21.359 27.9552 21.0663 28.2135C20.7747 28.4503 20.4344 28.5743 20.0455 28.5855C19.6566 28.5967 19.3163 28.4727 19.0247 28.2135L9.39967 19.6885C9.25384 19.5594 9.1503 19.4194 9.08905 19.2687C9.0278 19.1181 8.99815 18.9566 9.00009 18.7844C9.00009 18.6122 9.03071 18.4507 9.09196 18.3C9.15321 18.1493 9.25578 18.0094 9.39967 17.8802L19.0247 9.35521C19.292 9.1184 19.6265 9 20.028 9C20.4295 9 20.7756 9.1184 21.0663 9.35521C21.358 9.61354 21.5038 9.92053 21.5038 10.2762C21.5038 10.6318 21.358 10.9384 21.0663 11.1958L13.957 17.4927H30.2538C30.667 17.4927 31.0136 17.6167 31.2936 17.8647C31.5736 18.1127 31.7131 18.4193 31.7122 18.7844C31.7122 19.1503 31.5722 19.4573 31.2922 19.7053C31.0122 19.9533 30.6661 20.0769 30.2538 20.076H13.957Z" fill="white"/>
</svg>
