<svg width="25" height="25" viewBox="0 0 25 25" fill="none" xmlns="http://www.w3.org/2000/svg">
<path d="M12.5327 0C15.9076 0 18.7869 1.21975 21.1703 3.65925C23.5538 6.09875 24.7455 9.03591 24.7455 12.4707C24.7455 15.9055 23.5538 18.8427 21.1703 21.2822C18.7869 23.7217 15.9076 24.9415 12.5327 24.9415C9.15769 24.9415 6.27847 23.7217 3.89501 21.2822C1.51155 18.8427 0.319824 15.9055 0.319824 12.4707C0.319824 9.03591 1.51155 6.09875 3.89501 3.65925C6.27847 1.21975 9.15769 0 12.5327 0ZM12.5327 3.74707C11.5221 3.74707 10.6545 4.10812 9.92993 4.83021C9.20536 5.5523 8.84307 6.43052 8.84307 7.46487C8.84307 8.49922 9.20536 9.3872 9.92993 10.1288C10.6545 10.8704 11.5221 11.2412 12.5327 11.2412C13.5433 11.2412 14.4013 10.8704 15.1068 10.1288C15.8123 9.3872 16.1651 8.49922 16.1651 7.46487C16.1651 6.43052 15.8123 5.5523 15.1068 4.83021C14.4013 4.10812 13.5433 3.74707 12.5327 3.74707ZM12.5327 21.4871C14.039 21.4871 15.431 21.1261 16.7085 20.404C17.986 19.6819 19.0252 18.6963 19.826 17.4473C19.826 16.6667 19.378 15.9739 18.4818 15.3689C17.5856 14.7639 16.5941 14.315 15.5072 14.0222C14.4204 13.7295 13.4288 13.5831 12.5327 13.5831C11.6365 13.5831 10.645 13.7295 9.55811 14.0222C8.47125 14.315 7.47973 14.7639 6.58355 15.3689C5.68737 15.9739 5.22022 16.6667 5.18208 17.4473C5.98292 18.6963 7.03164 19.6819 8.32824 20.404C9.62485 21.1261 11.0263 21.4871 12.5327 21.4871Z" fill="white"/>
</svg>
