<svg width="26" height="26" viewBox="0 0 26 26" fill="none" xmlns="http://www.w3.org/2000/svg">
<path d="M12.9901 0.79303C16.3863 0.79303 19.2835 2.02043 21.6819 4.47523C24.0804 6.93003 25.2796 9.88561 25.2796 13.342C25.2796 16.7983 24.0804 19.7539 21.6819 22.2087C19.2835 24.6635 16.3863 25.8909 12.9901 25.8909C9.59398 25.8909 6.6967 24.6635 4.29829 22.2087C1.89989 19.7539 0.700684 16.7983 0.700684 13.342C0.700684 9.88561 1.89989 6.93003 4.29829 4.47523C6.6967 2.02043 9.59398 0.79303 12.9901 0.79303ZM12.9901 4.5636C11.9732 4.5636 11.1002 4.92691 10.3711 5.65354C9.64195 6.38016 9.27739 7.26388 9.27739 8.30472C9.27739 9.34556 9.64195 10.2391 10.3711 10.9854C11.1002 11.7316 11.9732 12.1048 12.9901 12.1048C14.007 12.1048 14.8705 11.7316 15.5804 10.9854C16.2903 10.2391 16.6453 9.34556 16.6453 8.30472C16.6453 7.26388 16.2903 6.38016 15.5804 5.65354C14.8705 4.92691 14.007 4.5636 12.9901 4.5636ZM12.9901 22.4149C14.5059 22.4149 15.9066 22.0516 17.1921 21.325C18.4777 20.5984 19.5234 19.6066 20.3292 18.3498C20.3292 17.5642 19.8783 16.8671 18.9765 16.2583C18.0747 15.6495 17.077 15.1978 15.9833 14.9032C14.8897 14.6086 13.8919 14.4614 12.9901 14.4614C12.0883 14.4614 11.0906 14.6086 9.99691 14.9032C8.90324 15.1978 7.9055 15.6495 7.0037 16.2583C6.1019 16.8671 5.63181 17.5642 5.59343 18.3498C6.3993 19.6066 7.4546 20.5984 8.75933 21.325C10.0641 22.0516 11.4743 22.4149 12.9901 22.4149Z" fill="white"/>
</svg>
