<svg width="31" height="28" viewBox="0 0 31 28" fill="none" xmlns="http://www.w3.org/2000/svg">
<path d="M27.75 24.5H24.6667V9.1875L15.4167 15.75L6.16667 9.1875V24.5H3.08333V3.5H4.93333L15.4167 10.9375L25.9 3.5H27.75M27.75 0H3.08333C1.37208 0 0 1.5575 0 3.5V24.5C0 25.4283 0.32485 26.3185 0.903087 26.9749C1.48132 27.6312 2.26558 28 3.08333 28H27.75C28.5678 28 29.352 27.6312 29.9302 26.9749C30.5085 26.3185 30.8333 25.4283 30.8333 24.5V3.5C30.8333 2.57174 30.5085 1.6815 29.9302 1.02513C29.352 0.368749 28.5678 0 27.75 0Z" fill="#0C214A"/>
</svg>
