<svg width="25" height="25" viewBox="0 0 25 25" fill="none" xmlns="http://www.w3.org/2000/svg">
<path d="M12.5 0C15.9543 0 18.9012 1.21975 21.3407 3.65925C23.7802 6.09875 25 9.03591 25 12.4707C25 15.9055 23.7802 18.8427 21.3407 21.2822C18.9012 23.7217 15.9543 24.9415 12.5 24.9415C9.04567 24.9415 6.09875 23.7217 3.65925 21.2822C1.21975 18.8427 0 15.9055 0 12.4707C0 9.03591 1.21975 6.09875 3.65925 3.65925C6.09875 1.21975 9.04567 0 12.5 0ZM12.5 3.74707C11.4657 3.74707 10.5777 4.10812 9.83607 4.83021C9.09446 5.5523 8.72365 6.43052 8.72365 7.46487C8.72365 8.49922 9.09446 9.3872 9.83607 10.1288C10.5777 10.8704 11.4657 11.2412 12.5 11.2412C13.5343 11.2412 14.4126 10.8704 15.1347 10.1288C15.8568 9.3872 16.2178 8.49922 16.2178 7.46487C16.2178 6.43052 15.8568 5.5523 15.1347 4.83021C14.4126 4.10812 13.5343 3.74707 12.5 3.74707ZM12.5 21.4871C14.0418 21.4871 15.4664 21.1261 16.774 20.404C18.0816 19.6819 19.1452 18.6963 19.9649 17.4473C19.9649 16.6667 19.5062 15.9739 18.589 15.3689C17.6717 14.7639 16.6569 14.315 15.5445 14.0222C14.4321 13.7295 13.4173 13.5831 12.5 13.5831C11.5827 13.5831 10.5679 13.7295 9.4555 14.0222C8.34309 14.315 7.32826 14.7639 6.41101 15.3689C5.49375 15.9739 5.01561 16.6667 4.97658 17.4473C5.79625 18.6963 6.86963 19.6819 8.19672 20.404C9.52381 21.1261 10.9582 21.4871 12.5 21.4871Z" fill="white"/>
</svg>
